#!OML:ASF H:\Terrain\Patient Classification 1\Terrain2\Thursday\justin.ASF
:FULLY-SPECIFIED
:DEGREES
1581
root 9.28713 17.6639 11.4835 180.594 -1.39059 -175.306
lowerback 1.39846 1.17166 4.10849
upperback 0.790559 1.44616 3.19002
thorax 0.0516703 0.656778 0.95228
lowerneck -14.9479 -1.71966 -9.68157
upperneck 30.7327 -3.39955 4.76844
head 12.986 -2.76837 2.83197
rclavicle -1.58531e-014 -7.95139e-015
rhumerus -34.5441 -17.6282 -76.8322
rradius 20.2258
rwrist -3.45913
rhand -19.6331 10.1595
rfingers 7.12502
rthumb 6.69402 -19.7147
lclavicle -1.58531e-014 -7.95139e-015
lhumerus -35.002 4.49407 87.0395
lradius 28.4519
lwrist 0.429678
lhand -18.4857 20.3462
lfingers 7.12502
lthumb 7.80159 50.1822
rfemur -8.25806 0.136393 25.8743
rtibia 30.3353
rfoot -20.161 1.76628
rtoes 16.424
lfemur -8.67461 -1.28294 -16.9626
ltibia 28.6194
lfoot -22.2991 -7.58847
ltoes -6.82762
1582
root 9.27943 17.6624 11.4587 180.741 -1.24719 -175.488
lowerback 1.22868 1.18593 3.93825
upperback 0.790376 1.46065 3.12419
thorax 0.143755 0.668357 0.982751
lowerneck -14.8232 -1.67331 -9.57795
upperneck 30.6436 -3.33359 4.65963
head 12.9121 -2.74007 2.78125
rclavicle -2.44008e-014 -3.18055e-014
rhumerus -34.5592 -17.1614 -77.1375
rradius 20.6052
rwrist -3.85638
rhand -19.6509 10.3902
rfingers 7.12502
rthumb 6.67684 -19.4845
lclavicle -2.44008e-014 -3.18055e-014
lhumerus -35.134 4.8543 86.8074
lradius 28.1337
lwrist -0.0183403
lhand -18.2722 20.5711
lfingers 7.12502
lthumb 8.00762 50.3994
rfemur -8.30833 0.156642 25.6252
rtibia 30.2856
rfoot -20.5297 1.77864
rtoes 15.6566
lfemur -8.71342 -1.33705 -17.2312
ltibia 28.6563
lfoot -22.3775 -7.38981
ltoes -7.4138
1583
root 9.27116 17.6629 11.4326 180.794 -1.09565 -175.379
lowerback 1.22295 1.16692 4.01415
upperback 0.735296 1.43261 3.19379
thorax 0.0904776 0.650865 1.01169
lowerneck -14.7076 -1.60736 -9.64208
upperneck 30.74 -3.25852 4.62103
head 12.9211 -2.73631 2.78831
rclavicle 2.02512e-014 -7.95139e-015
rhumerus -34.6861 -16.4879 -77.3845
rradius 21.1018
rwrist -4.15163
rhand -19.2298 10.8759
rfingers 7.12502
rthumb 7.08334 -18.9856
lclavicle 2.02512e-014 -7.95139e-015
lhumerus -35.3807 5.27845 86.621
lradius 27.7595
lwrist -0.378397
lhand -18.0688 20.7622
lfingers 7.12502
lthumb 8.20396 50.5829
rfemur -8.25451 0.217891 25.6969
rtibia 30.2253
rfoot -20.76 1.83839
rtoes 15.8894
lfemur -8.71822 -1.12488 -17.1363
ltibia 28.764
lfoot -22.4419 -7.63149
ltoes -6.94366
1584
root 9.25983 17.6577 11.4039 180.721 -1.02206 -175.002
lowerback 1.36529 1.11821 4.33379
upperback 0.665435 1.36388 3.39014
thorax -0.057983 0.605549 1.03275
lowerneck -14.7013 -1.53375 -9.85126
upperneck 31.0158 -3.18636 4.69492
head 13.033 -2.74837 2.86444
rclavicle 5.98839e-015 3.49861e-014
rhumerus -34.8034 -15.7451 -77.5174
rradius 21.4714
rwrist -4.38492
rhand -18.4477 11.3833
rfingers 7.12502
rthumb 7.83827 -18.4514
lclavicle 5.98839e-015 3.49861e-014
lhumerus -35.7294 5.68024 86.5678
lradius 27.4238
lwrist -0.417629
lhand -17.9532 20.8612
lfingers 7.12502
lthumb 8.31554 50.6775
rfemur -8.00569 0.172881 26.0865
rtibia 30.1558
rfoot -21.1726 1.64346
rtoes 14.4669
lfemur -8.64564 -1.18471 -16.7627
ltibia 28.9492
lfoot -22.5029 -7.84706
ltoes -5.44791
1585
root 9.24815 17.6453 11.3761 180.58 -1.05068 -174.719
lowerback 1.57345 1.05403 4.55813
upperback 0.646814 1.28009 3.54295
thorax -0.192591 0.55428 1.06236
lowerneck -14.6687 -1.49494 -10.0163
upperneck 31.1058 -3.14412 4.78653
head 13.064 -2.74957 2.93551
rclavicle 1.05853e-014 7.31528e-014
rhumerus -34.8293 -15.1979 -77.6159
rradius 21.719
rwrist -4.62345
rhand -18.2748 11.7147
rfingers 7.12502
rthumb 8.00514 -18.1137
lclavicle 1.05853e-014 7.31528e-014
lhumerus -36.0387 5.57106 86.8157
lradius 27.146
lwrist 0.847835
lhand -19.1281 19.995
lfingers 7.12502
lthumb 7.18153 49.8532
rfemur -7.68751 0.123256 26.3895
rtibia 30.1189
rfoot -21.5443 1.24044
rtoes 15.4371
lfemur -8.50339 -1.39802 -16.5047
ltibia 29.1519
lfoot -22.5394 -7.92155
ltoes -5.01668
1586
root 9.23863 17.6335 11.354 180.548 -1.04809 -174.68
lowerback 1.70015 1.0192 4.589
upperback 0.650682 1.24069 3.55827
thorax -0.259804 0.532579 1.05952
lowerneck -14.6407 -1.44978 -10.0295
upperneck 31.0813 -3.09525 4.84898
head 13.0436 -2.72141 2.96996
rclavicle 1.55052e-014 -7.95139e-016
rhumerus -34.8033 -14.9323 -77.7449
rradius 22.034
rwrist -4.85561
rhand -18.5311 11.5118
rfingers 7.12502
rthumb 7.75777 -18.3259
lclavicle 1.55052e-014 -7.95139e-016
lhumerus -36.222 5.1282 87.1929
lradius 26.9744
lwrist 2.76621
lhand -21.054 18.9872
lfingers 7.12502
lthumb 5.32217 48.9003
rfemur -7.59368 0.296191 26.4174
rtibia 30.1988
rfoot -21.8229 0.907332
rtoes 4.0047
lfemur -8.42708 -1.34837 -16.4933
ltibia 29.2949
lfoot -22.5425 -7.91903
ltoes -5.64324
1587
root 9.22952 17.6286 11.3316 180.63 -0.972711 -174.689
lowerback 1.64797 1.02743 4.64963
upperback 0.657764 1.25235 3.49283
thorax -0.220332 0.541015 0.959169
lowerneck -14.6405 -1.4177 -9.93665
upperneck 31.1023 -3.09066 4.87848
head 13.0497 -2.70687 2.96631
rclavicle 6.33626e-015 -9.54166e-015
rhumerus -34.7432 -14.957 -77.8894
rradius 22.3818
rwrist -5.02213
rhand -18.792 10.6684
rfingers 7.12502
rthumb 7.50596 -19.1784
lclavicle 6.33626e-015 -9.54166e-015
lhumerus -36.2322 5.25284 87.0364
lradius 26.7367
lwrist 2.4162
lhand -20.4835 20.1695
lfingers 7.12502
lthumb 5.87303 50.0681
rfemur -7.70193 0.240121 26.406
rtibia 30.4339
rfoot -22.2392 0.405325
rtoes 5.18941
lfemur -8.4268 -1.30187 -16.5401
ltibia 29.3621
lfoot -22.6591 -7.82701
ltoes -6.19391
